<?xml version="1.0" standalone="no"?>
<!DOCTYPE svg PUBLIC "-//W3C//DTD SVG 20010904//EN"
 "http://www.w3.org/TR/2001/REC-SVG-20010904/DTD/svg10.dtd">
<svg version="1.0" xmlns="http://www.w3.org/2000/svg"
 width="300.000000pt" height="300.000000pt" viewBox="0 0 300.000000 300.000000"
 preserveAspectRatio="xMidYMid meet">
<metadata>
Created by potrace 1.10, written by Peter Selinger 2001-2011
</metadata>
<g transform="translate(0.000000,300.000000) scale(0.100000,-0.100000)"
fill="#2b88da" stroke="none">
<path d="M708 2870 l-607 -5 -22 -22 -22 -22 117 -993 c64 -546 116 -999 116
-1005 0 -10 75 -13 345 -13 l344 0 -5 29 c-4 18 2 46 15 76 21 46 103 156 154
203 l24 23 21 -33 21 -32 -66 -69 c-72 -77 -106 -138 -93 -171 7 -19 16 -21
103 -24 l95 -3 -5 -37 c-3 -25 2 -50 16 -77 12 -21 21 -32 21 -24 0 8 -7 24
-15 35 -25 33 -18 44 28 46 41 1 41 1 6 5 -33 4 -37 8 -42 37 -3 19 -4 53 -2
77 l4 44 -11 -42 -11 -43 -83 0 c-83 0 -84 0 -84 26 0 56 13 64 109 64 l89 0
10 60 c6 33 20 81 32 107 l21 48 -49 -48 c-43 -42 -50 -46 -62 -33 -9 11 -9
16 -1 16 18 0 -14 55 -44 74 l-27 18 61 47 c79 61 162 102 217 109 37 4 43 8
46 30 2 14 9 28 17 30 8 3 11 0 7 -7 -11 -17 22 -25 52 -12 19 9 22 15 13 20
-9 6 -10 10 -2 12 6 2 -31 4 -82 4 -78 0 -100 4 -149 27 -32 15 -74 39 -94 54
-47 36 -94 119 -94 165 0 25 -5 39 -16 43 -22 8 -31 -1 -16 -16 7 -7 12 -26
12 -43 0 -45 54 -130 108 -170 26 -19 53 -35 60 -35 6 0 12 -4 12 -10 0 -5 16
-12 35 -16 19 -3 38 -10 41 -15 3 -5 21 -9 40 -9 48 0 45 -26 -3 -34 -77 -12
-288 -151 -276 -182 4 -10 -11 -33 -44 -67 -27 -29 -67 -75 -88 -104 l-38 -51
-156 -2 c-86 -1 -214 -3 -285 -4 -151 -2 -137 -15 -155 144 -7 58 -18 152 -26
210 -8 58 -17 131 -20 163 -4 32 -9 56 -12 53 -4 -4 20 -255 48 -491 5 -44 9
-84 9 -89 0 -6 116 -7 301 -2 285 6 301 5 294 -11 -4 -10 -8 -27 -10 -38 -1
-11 -3 -24 -4 -28 0 -4 -144 -6 -318 -5 l-318 3 -17 145 c-9 80 -21 181 -27
225 -15 115 -33 272 -96 810 -46 393 -76 648 -86 724 -7 58 -6 76 3 83 13 8
2801 12 2809 4 4 -4 2 -47 -15 -251 -2 -33 -7 -103 -11 -155 -8 -133 -15 -227
-20 -280 -3 -25 -9 -108 -15 -185 -5 -77 -14 -198 -20 -270 -5 -71 -12 -161
-15 -200 -22 -307 -47 -591 -53 -597 -4 -4 -36 -9 -72 -12 -36 -2 -92 -7 -125
-10 -33 -3 -105 -8 -161 -11 -55 -3 -170 -10 -255 -15 -188 -12 -316 -13 -322
-3 -3 5 -8 30 -12 57 -7 41 -5 48 7 44 8 -4 21 -2 29 3 10 6 7 9 -13 9 -25 0
-28 4 -28 33 0 18 -4 37 -10 43 -6 6 11 9 44 8 38 0 62 -7 84 -23 21 -15 58
-25 115 -32 116 -15 217 5 352 71 55 27 126 53 158 59 57 10 97 26 97 38 0 4
-8 15 -17 25 -14 15 -15 23 -5 38 10 16 8 22 -13 38 -14 11 -25 27 -25 35 0
19 -26 41 -40 32 -6 -4 -20 5 -32 20 -20 25 -21 26 -40 8 -11 -10 -24 -28 -29
-41 -8 -21 -10 -22 -25 -8 -32 32 -59 -20 -38 -71 8 -18 14 -36 14 -41 0 -11
-126 -66 -185 -81 -69 -18 -174 -13 -235 12 -30 12 -53 24 -51 27 25 30 -172
172 -275 199 -28 7 -43 18 -47 31 -3 12 0 20 7 20 33 0 139 65 180 111 43 48
72 111 60 131 -3 5 0 16 7 24 11 13 14 11 25 -15 7 -17 26 -48 43 -68 16 -21
31 -47 34 -58 5 -19 5 -19 6 1 0 11 -17 46 -40 78 l-41 57 21 44 c20 44 28 75
14 62 -3 -4 -11 3 -18 16 -8 16 -20 22 -45 22 -28 0 -35 4 -33 19 1 11 -3 30
-8 43 -5 14 -12 48 -15 76 -4 29 -10 59 -15 67 -12 21 -11 -64 1 -110 23 -89
22 -87 10 -67 -15 23 -86 56 -120 57 -23 0 -21 3 14 23 41 22 81 77 74 99 -3
7 -13 -2 -22 -18 -10 -17 -40 -45 -67 -63 -27 -17 -49 -35 -49 -39 0 -5 -17
-8 -37 -9 -34 -1 -35 -1 -13 8 25 8 25 9 -3 5 -16 -2 -45 0 -65 4 -20 5 -53
11 -72 14 -49 8 -96 20 -162 41 -56 18 -58 18 -79 -1 -26 -24 -49 -67 -49 -93
0 -14 -9 -23 -25 -27 -14 -3 -25 -10 -25 -16 0 -5 -4 -7 -9 -3 -15 9 -24 -60
-11 -84 10 -19 6 -28 -29 -68 -23 -25 -41 -55 -40 -67 0 -19 1 -19 10 4 6 14
28 43 50 66 36 37 39 43 29 68 -14 37 -13 43 10 66 16 16 25 18 40 10 18 -10
20 -7 20 32 0 48 36 111 60 104 8 -2 54 -15 103 -30 48 -14 117 -28 153 -32
58 -6 63 -8 50 -23 -8 -9 -17 -27 -21 -41 -9 -36 -41 -36 -53 0 -17 47 -53 63
-125 58 -85 -7 -139 -36 -165 -88 -11 -23 -23 -36 -27 -31 -3 6 -12 11 -18 11
-7 0 -4 -5 5 -11 10 -5 26 -30 37 -54 36 -81 125 -108 218 -65 45 20 83 69 83
108 0 35 37 29 45 -8 14 -63 118 -119 194 -105 40 8 111 72 111 101 0 11 12
30 26 43 23 22 27 23 41 8 33 -33 4 -107 -43 -107 -10 0 -14 -13 -14 -40 0
-23 -7 -54 -15 -69 -25 -49 -112 -119 -171 -138 -54 -17 -54 -17 -54 -57 0
-40 1 -41 36 -44 47 -3 107 -30 186 -83 104 -70 103 -68 71 -101 -14 -15 -24
-30 -21 -34 4 -3 11 3 17 14 11 20 12 20 73 -11 110 -57 264 -46 408 29 75 39
73 35 50 89 -25 57 -13 80 19 39 18 -23 24 -26 31 -14 6 8 10 24 10 36 0 11 6
29 14 40 14 18 15 18 21 1 7 -16 3 -45 -12 -83 -3 -10 10 0 30 22 24 26 39 36
46 29 11 -11 -23 -75 -40 -75 -5 0 -9 -4 -9 -10 0 -5 16 0 35 11 38 23 76 19
56 -5 -7 -8 -26 -20 -44 -27 l-32 -14 44 -5 c61 -7 67 -30 7 -30 -24 0 -48 -5
-52 -11 -3 -6 -17 -9 -30 -6 -14 2 -27 0 -30 -5 -10 -15 -137 -75 -204 -96
-141 -43 -234 -37 -352 21 -38 18 -68 30 -68 25 0 -5 -7 -11 -16 -15 -10 -4
-30 11 -59 43 l-45 49 19 -40 c20 -41 44 -148 57 -244 l7 -53 181 4 c154 5
786 39 793 43 4 2 14 134 88 1114 61 813 63 856 47 883 l-16 28 -791 -2 c-434
-2 -1063 -5 -1397 -8z m590 -27 c-32 -2 -84 -2 -115 0 -32 2 -6 3 57 3 63 0
89 -1 58 -3z m240 0 c-10 -2 -26 -2 -35 0 -10 3 -2 5 17 5 19 0 27 -2 18 -5z
m110 0 c-15 -2 -42 -2 -60 0 -18 2 -6 4 27 4 33 0 48 -2 33 -4z m59 1 c-3 -3
-12 -4 -19 -1 -8 3 -5 6 6 6 11 1 17 -2 13 -5z m96 -1 c-13 -2 -33 -2 -45 0
-13 2 -3 4 22 4 25 0 35 -2 23 -4z m820 0 c-29 -2 -77 -2 -105 0 -29 2 -6 3
52 3 58 0 81 -1 53 -3z m194 0 c-20 -2 -52 -2 -70 0 -17 2 0 4 38 4 39 0 53
-2 32 -4z m-1105 -996 c31 -10 78 -61 78 -84 0 -30 -33 -84 -61 -98 -51 -27
-129 -12 -173 31 -35 36 -37 106 -4 141 19 21 31 24 78 22 30 -1 67 -7 82 -12z
m-362 -9 c0 -10 2 -10 9 1 11 16 45 0 61 -29 18 -34 12 -97 -13 -125 -32 -38
-117 -59 -162 -41 -65 27 -88 111 -42 154 42 40 147 68 147 40z m468 -56 c6
-18 -15 -14 -22 4 -4 10 -1 14 6 12 6 -2 14 -10 16 -16z m-278 -412 c0 -5 -4
-10 -9 -10 -6 0 -13 5 -16 10 -3 6 1 10 9 10 9 0 16 -4 16 -10z m-276 -355
c-3 -17 -10 -56 -13 -75 -2 -11 -131 -11 -131 -1 0 9 55 78 73 92 4 3 23 5 42
5 29 -1 33 -4 29 -21z"/>
<path d="M1576 1821 c-12 -13 -16 -31 -13 -58 l4 -38 1 39 c1 22 9 48 19 58 9
10 14 18 11 18 -3 0 -13 -9 -22 -19z"/>
<path d="M1686 1805 c10 -15 14 -37 12 -55 -3 -16 -1 -30 4 -30 15 0 9 78 -8
94 -23 24 -27 19 -8 -9z"/>
<path d="M1600 1791 c-5 -11 -10 -30 -10 -43 0 -21 4 -23 45 -20 41 4 45 6 45
31 0 15 -5 32 -12 39 -18 18 -56 14 -68 -7z m61 -8 c13 -16 12 -17 -2 -5 -14
10 -18 10 -23 -3 -7 -19 -26 -20 -26 -1 0 8 8 17 18 19 9 3 18 5 18 6 1 0 8
-7 15 -16z"/>
<path d="M1385 1800 c22 -45 29 -52 20 -20 -4 14 -14 32 -22 40 -12 12 -11 7
2 -20z"/>
<path d="M1270 1805 c-6 -8 -10 -19 -8 -26 2 -6 9 0 16 15 13 29 10 33 -8 11z"/>
<path d="M1291 1778 c-15 -40 -3 -58 40 -58 36 0 39 2 39 28 0 34 -16 52 -47
52 -15 0 -27 -8 -32 -22z m37 -10 c-6 -18 -28 -21 -28 -4 0 9 7 16 16 16 9 0
14 -5 12 -12z m30 -13 c-3 -3 -9 2 -12 12 -6 14 -5 15 5 6 7 -7 10 -15 7 -18z"/>
<path d="M173 2727 c3 -19 18 -149 33 -290 15 -141 30 -254 34 -252 4 2 3 32
-1 67 -5 35 -11 95 -14 133 -4 39 -13 131 -20 205 -9 81 -11 138 -5 144 8 8
2175 15 2482 8 l127 -3 -4 -42 c-3 -23 -7 -85 -10 -137 -3 -52 -7 -117 -9
-145 -7 -78 -9 -205 -4 -210 2 -3 12 109 22 248 9 138 20 264 22 280 l6 27
-1333 0 -1332 0 6 -33z"/>
<path d="M1355 2338 c-52 -19 -130 -74 -169 -119 -40 -47 -116 -191 -116 -218
1 -9 11 10 24 41 75 178 209 288 353 288 34 0 74 -5 90 -11 15 -6 54 -12 86
-15 96 -7 152 -45 215 -149 20 -33 39 -78 43 -100 l6 -40 2 41 c1 32 -8 55
-40 105 -77 120 -127 156 -226 163 -32 3 -71 9 -86 15 -36 14 -142 13 -182 -1z"/>
<path d="M2773 2125 c0 -38 2 -53 4 -32 2 20 2 52 0 70 -2 17 -4 1 -4 -38z"/>
<path d="M240 2127 c0 -26 4 -47 8 -47 9 0 7 78 -2 87 -3 4 -6 -15 -6 -40z"/>
<path d="M252 2025 c0 -16 2 -22 5 -12 2 9 2 23 0 30 -3 6 -5 -1 -5 -18z"/>
<path d="M2762 2020 c0 -14 2 -19 5 -12 2 6 2 18 0 25 -3 6 -5 1 -5 -13z"/>
<path d="M2758 1965 c-3 -14 -1 -25 3 -25 5 0 9 11 9 25 0 14 -2 25 -4 25 -2
0 -6 -11 -8 -25z"/>
<path d="M1891 1964 c0 -11 3 -14 6 -6 3 7 2 16 -1 19 -3 4 -6 -2 -5 -13z"/>
<path d="M260 1925 c0 -14 4 -25 9 -25 4 0 6 11 3 25 -2 14 -6 25 -8 25 -2 0
-4 -11 -4 -25z"/>
<path d="M1061 1902 c-17 -31 -13 -40 5 -14 9 13 14 26 11 29 -3 2 -10 -4 -16
-15z"/>
<path d="M273 1845 c0 -22 2 -30 4 -17 2 12 2 30 0 40 -3 9 -5 -1 -4 -23z"/>
<path d="M1890 1866 c0 -4 11 -21 25 -38 14 -16 25 -25 25 -19 0 12 -49 69
-50 57z"/>
<path d="M2752 1838 c-1 -20 -5 -45 -8 -55 -5 -17 -5 -17 6 0 6 9 9 34 7 55
l-4 37 -1 -37z"/>
<path d="M280 1746 c0 -14 5 -26 10 -26 6 0 10 9 10 19 0 11 -4 23 -10 26 -6
4 -10 -5 -10 -19z"/>
<path d="M2743 1700 c0 -36 2 -50 4 -32 2 17 2 47 0 65 -2 17 -4 3 -4 -33z"/>
<path d="M1829 1723 c-13 -15 -12 -15 11 -3 34 17 36 20 18 20 -9 0 -22 -7
-29 -17z"/>
<path d="M293 1660 c0 -25 2 -35 4 -22 2 12 2 32 0 45 -2 12 -4 2 -4 -23z"/>
<path d="M1462 1671 c-17 -11 -12 -43 8 -49 13 -4 13 -3 2 11 -15 18 -7 41 10
31 7 -4 8 -2 4 4 -8 14 -7 14 -24 3z"/>
<path d="M300 1566 c0 -25 5 -48 10 -51 7 -4 10 11 8 44 -4 63 -18 68 -18 7z"/>
<path d="M1599 1590 c-42 -32 -106 -50 -178 -51 -57 -1 -61 -2 -31 -9 42 -10
131 5 180 30 43 23 79 49 65 49 -5 0 -22 -9 -36 -19z"/>
<path d="M1618 1557 c-50 -63 -145 -85 -223 -53 -19 8 -35 13 -35 10 0 -13 79
-36 123 -36 59 1 124 36 150 81 23 40 19 39 -15 -2z"/>
<path d="M1314 1556 c11 -9 24 -16 30 -16 12 0 7 5 -24 19 -24 11 -24 11 -6
-3z"/>
<path d="M2727 1563 c-2 -4 -8 -64 -12 -133 -8 -153 -12 -198 -20 -275 -4 -33
-8 -86 -9 -118 -2 -32 -6 -60 -9 -64 -9 -9 -40 -10 -402 -18 -181 -4 -332 -9
-335 -12 -3 -3 165 -3 374 0 208 3 380 7 381 9 5 6 45 611 41 615 -2 2 -6 1
-9 -4z"/>
<path d="M1560 1285 c-15 -18 -61 -20 -78 -3 -9 9 -12 9 -12 0 0 -29 92 -26
104 3 7 19 2 19 -14 0z"/>
<path d="M1388 973 c7 -3 16 -2 19 1 4 3 -2 6 -13 5 -11 0 -14 -3 -6 -6z"/>
<path d="M1628 973 c6 -2 18 -2 25 0 6 3 1 5 -13 5 -14 0 -19 -2 -12 -5z"/>
<path d="M1868 943 c7 -3 16 -2 19 1 4 3 -2 6 -13 5 -11 0 -14 -3 -6 -6z"/>
<path d="M1908 943 c7 -3 16 -2 19 1 4 3 -2 6 -13 5 -11 0 -14 -3 -6 -6z"/>
<path d="M1393 933 c9 -2 25 -2 35 0 9 3 1 5 -18 5 -19 0 -27 -2 -17 -5z"/>
<path d="M1598 933 c12 -2 32 -2 45 0 12 2 2 4 -23 4 -25 0 -35 -2 -22 -4z"/>
<path d="M1308 923 c12 -2 30 -2 40 0 9 3 -1 5 -23 4 -22 0 -30 -2 -17 -4z"/>
<path d="M1693 923 c9 -2 23 -2 30 0 6 3 -1 5 -18 5 -16 0 -22 -2 -12 -5z"/>
<path d="M1382 914 c7 -7 249 -6 256 1 3 3 -55 5 -128 5 -73 0 -131 -3 -128
-6z"/>
<path d="M990 797 c0 -19 100 -138 149 -176 22 -18 41 -39 41 -46 0 -17 31
-28 54 -19 14 5 10 11 -19 28 -46 28 -149 129 -187 184 -31 44 -38 50 -38 29z
m234 -236 c-2 -3 -12 3 -22 13 -16 17 -16 18 5 5 12 -7 20 -15 17 -18z"/>
<path d="M1780 780 c-9 -16 -8 -20 5 -20 14 0 16 -15 14 -105 -2 -103 -3 -105
-32 -130 -16 -13 -55 -29 -86 -36 -114 -24 -347 -10 -388 24 -7 5 -13 20 -13
33 0 13 -4 24 -10 24 -5 0 -7 -7 -4 -15 4 -10 0 -15 -12 -15 -18 -1 -18 -1 0
-15 17 -13 18 -18 6 -60 l-13 -45 -618 0 -619 0 0 -40 0 -40 600 2 c330 2 600
2 600 1 0 -1 -10 -22 -21 -47 -12 -24 -19 -51 -16 -60 21 -55 244 -101 447
-93 133 5 194 20 244 60 l29 24 -15 44 c-9 24 -19 51 -22 59 -6 13 60 15 564
12 l570 -2 0 40 0 40 -585 0 -585 0 -24 49 c-24 46 -24 49 -7 54 24 6 36 98
26 203 -7 76 -16 90 -35 54z m-410 -314 c121 -18 245 -15 366 10 27 5 32 3 37
-18 4 -12 20 -38 37 -57 23 -24 30 -40 26 -56 -3 -13 1 -42 10 -66 14 -42 14
-45 -7 -62 -12 -9 -47 -25 -78 -34 -149 -46 -561 4 -561 68 0 5 7 23 15 39 9
17 13 40 9 54 -4 19 0 31 20 49 14 13 29 39 32 56 6 28 10 31 33 27 14 -3 42
-8 61 -10z m-149 -84 c-8 -15 -20 -18 -63 -15 -29 1 -295 3 -590 3 -337 0
-538 4 -538 10 0 6 221 11 587 13 324 1 594 3 601 5 9 1 10 -3 3 -16z m1743
-2 c-7 -7 -211 -10 -565 -10 -444 -1 -555 2 -557 12 -2 11 106 12 565 10 375
-1 563 -6 557 -12z"/>
<path d="M1080 787 c0 -16 56 -79 81 -92 20 -11 29 -11 38 -2 8 8 11 7 11 -3
0 -18 39 -70 40 -53 0 6 -5 15 -11 18 -15 10 -28 48 -21 60 10 17 11 35 1 35
-5 0 -9 -7 -9 -15 0 -9 -6 -22 -12 -30 -11 -11 -22 -5 -65 38 -29 28 -53 48
-53 44z"/>
<path d="M1670 753 c0 -5 24 -8 53 -9 34 -1 45 1 32 7 -26 10 -85 11 -85 2z"/>
<path d="M1353 738 c17 -11 275 -10 281 1 3 5 -61 8 -144 8 -82 -1 -144 -5
-137 -9z"/>
<path d="M1308 723 c6 -2 18 -2 25 0 6 3 1 5 -13 5 -14 0 -19 -2 -12 -5z"/>
<path d="M1658 723 c6 -2 18 -2 25 0 6 3 1 5 -13 5 -14 0 -19 -2 -12 -5z"/>
<path d="M1388 713 c7 -3 16 -2 19 1 4 3 -2 6 -13 5 -11 0 -14 -3 -6 -6z"/>
<path d="M1190 647 c0 -2 15 -16 33 -33 l32 -29 -29 33 c-28 30 -36 37 -36 29z"/>
<path d="M1275 637 c-11 -13 -16 -62 -5 -50 7 8 23 63 18 63 -2 -1 -7 -6 -13
-13z"/>
<path d="M2982 175 c0 -16 2 -22 5 -12 2 9 2 23 0 30 -3 6 -5 -1 -5 -18z"/>
<path d="M1376 108 c-3 -13 -6 -40 -6 -60 l0 -38 45 0 c44 0 45 1 45 33 0 17
3 43 7 57 3 14 2 22 -2 17 -5 -4 -11 -26 -14 -50 -6 -38 -9 -42 -38 -45 l-31
-3 5 55 c5 57 0 74 -11 34z"/>
<path d="M1603 99 c4 -13 7 -39 7 -56 0 -28 4 -33 23 -32 16 1 18 2 5 6 -14 3
-18 15 -18 48 0 24 -5 47 -12 51 -8 5 -9 0 -5 -17z"/>
<path d="M1688 70 c3 -40 1 -49 -15 -53 -15 -4 -14 -5 5 -6 20 -1 22 3 22 48
0 28 -3 52 -7 54 -5 3 -6 -17 -5 -43z"/>
<path d="M2982 40 c0 -19 2 -27 5 -17 2 9 2 25 0 35 -3 9 -5 1 -5 -18z"/>
</g>
</svg>
